HIERARCHY
ROOT Hips
{
  OFFSET 179.979 97.3047 303.174
  CHANNELS 6 Xposition Yposition Zposition Zrotation Xrotation Yrotation
  JOINT Spine
  {
    OFFSET 0.000859786 9.92346 -1.22733
    CHANNELS 3 Zrotation Xrotation Yrotation
    JOINT Spine1
    {
      OFFSET 0 11.732 0
      CHANNELS 3 Zrotation Xrotation Yrotation
      JOINT Spine2
      {
        OFFSET 0 13.4588 0
        CHANNELS 3 Zrotation Xrotation Yrotation
        JOINT Neck
        {
          OFFSET 2.54812e-05 15.0278 0.877907
          CHANNELS 3 Zrotation Xrotation Yrotation
          JOINT Head
          {
            OFFSET 0 10.3218 3.14243
            CHANNELS 3 Zrotation Xrotation Yrotation
            End Site
            {
              OFFSET 0 0 0
            }
          }
        }
        JOINT LeftShoulder
        {
          OFFSET 6.10582 9.10629 0.757062
          CHANNELS 3 Zrotation Xrotation Yrotation
          JOINT LeftArm
          {
            OFFSET 0 12.9223 0
            CHANNELS 3 Zrotation Xrotation Yrotation
            JOINT LeftForeArm
            {
              OFFSET 0 27.4047 0
              CHANNELS 3 Zrotation Xrotation Yrotation
              JOINT LeftHand
              {
                OFFSET -1.28204e-05 27.6145 0
                CHANNELS 3 Zrotation Xrotation Yrotation
                End Site
                {
                  OFFSET 0 0 0
                }
              }
            }
          }
        }
        JOINT RightShoulder
        {
          OFFSET -6.1057 9.10638 0.757076
          CHANNELS 3 Zrotation Xrotation Yrotation
          JOINT RightArm
          {
            OFFSET 0 12.9223 0
            CHANNELS 3 Zrotation Xrotation Yrotation
            JOINT RightForeArm
            {
              OFFSET 0 27.4047 0
              CHANNELS 3 Zrotation Xrotation Yrotation
              JOINT RightHand
              {
                OFFSET 1.28428e-05 27.6145 1.44975e-05
                CHANNELS 3 Zrotation Xrotation Yrotation
                End Site
                {
                  OFFSET 0 0 0
                }
              }
            }
          }
        }
      }
    }
  }
  JOINT LeftUpLeg
  {
    OFFSET 9.12387 -6.65719 -0.0554031
    CHANNELS 3 Zrotation Xrotation Yrotation
    JOINT LeftLeg
    {
      OFFSET 0 40.5994 0
      CHANNELS 3 Zrotation Xrotation Yrotation
      JOINT LeftFoot
      {
        OFFSET 0 42.099 0
        CHANNELS 3 Zrotation Xrotation Yrotation
        JOINT LeftToeBase
        {
          OFFSET 0 15.7216 0
          CHANNELS 3 Zrotation Xrotation Yrotation
          End Site
          {
            OFFSET 0 0 0
          }
        }
      }
    }
  }
  JOINT RightUpLeg
  {
    OFFSET -9.12503 -6.6556 -0.0553527
    CHANNELS 3 Zrotation Xrotation Yrotation
    JOINT RightLeg
    {
      OFFSET 0 40.5994 0
      CHANNELS 3 Zrotation Xrotation Yrotation
      JOINT RightFoot
      {
        OFFSET 0 42.099 0
        CHANNELS 3 Zrotation Xrotation Yrotation
        JOINT RightToeBase
        {
          OFFSET 0 15.7216 0
          CHANNELS 3 Zrotation Xrotation Yrotation
          End Site
          {
            OFFSET 0 0 0
          }
        }
      }
    }
  }
}
MOTION
Frames:	16
Frame Time:	0.0333333
-60.73 90.6055 299.378 -12.0725 -2.75325 -68.3601 -0.385322 -7.88919 -4.01635 -0.826114 -1.80073 -7.94647 0.0912676 4.73014 -7.96983 6.02296 -31.9489 -3.86963 5.16965 -13.8125 -4.59469 -102.216 -20.5619 89.0431 6.1536 59.1094 13.6324 97.4731 -2.79627 1.2384 14.6425 0.166501 75.0669 113.836 -35.8071 -83.2238 32.66 51.4482 10.5486 -72.8286 -13.2416 0.869131 -4.86741 -24.1437 -66.2918 -173.767 -21.2417 -0.60792 -1.94612 -48.0546 -7.71269 -4.31199 58.3818 -10.0017 -0.965281 26.367 -3.60229 -176.662 11.5489 -8.3468 9.56862 -53.5442 11.2196 -77.201 85.8358 74.6987 0.963541 26.3682 3.55537 
-66.5835 89.4494 300.182 -13.4711 -0.762486 -66.8112 0.0502598 -7.3472 -3.79544 0.0746622 -0.747477 -7.60288 0.954111 5.78861 -7.64113 6.31267 -30.2156 -3.28793 5.41856 -15.2326 -3.9331 -102.738 -21.7815 88.7507 3.96965 61.3917 8.15661 105.843 -0.634176 1.6026 23.357 -15.9738 41.6942 115.113 -35.2646 -83.1427 30.0049 52.3127 14.7961 -73.0446 -13.8986 0.892302 -6.2976 -28.8482 -62.2801 -170.173 -14.7039 -0.22226 1.14411 -61.3218 -5.80989 -1.36749 58.5982 -10.3451 -0.965281 26.367 -3.60229 -174.084 6.02854 -0.424654 4.23489 -53.3294 4.97003 -146.535 84.5792 141.904 0.963541 26.3682 3.55537 
-72.4262 88.9187 301.311 -13.0232 0.315257 -66.2063 0.293566 -7.38449 -3.11416 0.558727 -0.835094 -6.29743 1.28797 5.7193 -6.32793 5.35931 -28.2083 -2.93641 6.64224 -16.0812 -3.53416 -104.071 -23.4054 88.2852 -4.66699 63.0424 11.2853 106.908 0.267059 1.66859 32.3914 -31.3971 18.3337 116.822 -34.3225 -83.138 24.8787 52.1696 15.4777 -68.3653 -16.5958 1.01735 -6.59134 -32.4129 -49.6554 -170.854 -5.70368 1.19025 4.81643 -72.4408 -4.68955 6.84254 61.0322 -13.9734 -0.965281 26.367 -3.60229 -173.035 1.49417 -1.96017 8.90932 -50.8534 8.92723 -154.048 81.8552 147.815 0.963541 26.3682 3.55537 
-78.5096 89.4995 302.872 -12.4048 -0.336929 -66.0202 0.093955 -7.5266 -2.15353 0.164197 -1.10691 -4.3291 0.666296 5.46863 -4.34779 3.45355 -27.6011 -2.76556 7.86813 -16.4069 -3.39757 -106.134 -25.7883 87.5052 -14.7023 60.0924 15.8322 101.752 -0.443795 1.46171 36.9789 -37.0112 35.7078 116.245 -33.3141 -83.6414 20.7984 53.2602 7.9938 -58.5356 -20.5746 1.20407 3.76194 -34.8328 -11.716 -175.512 1.96682 4.49463 7.52981 -78.4635 -5.01876 14.9082 62.5745 -19.3593 -0.965281 26.367 -3.60229 -173.486 -5.78436 -3.33545 10.2919 -44.1712 10.0978 -149.399 81.4976 142.393 0.963541 26.3682 3.55537 
-84.8785 90.7447 304.603 -12.401 -1.50892 -66.6731 -0.189902 -7.63688 -0.803181 -0.387532 -1.32179 -1.56263 -0.205275 5.27019 -1.56874 0.555459 -29.3301 -3.08574 8.96878 -15.4229 -3.82206 -106.479 -28.1891 86.8401 -18.6886 55.8099 16.3104 90.7563 -2.75888 1.00949 25.0087 -21.5039 48.2489 115.518 -32.2615 -84.1725 17.0417 54.096 -0.763407 -46.7657 -21.3412 1.22361 18.3248 -18.3284 31.5667 179.981 7.87398 7.50705 5.23162 -80.1537 -7.53209 19.6792 66.2424 -23.0182 -0.965281 26.367 -3.60229 -173.968 -14.4291 -3.14373 8.63708 -35.8413 8.52715 -109.272 84.4534 100.633 0.963541 26.3682 3.55537 
-91.2047 92.1581 306.455 -12.4898 -2.74195 -68.8671 -0.38759 -7.78415 0.828272 -0.758804 -1.62506 1.74532 -0.959186 4.96636 1.7511 -3.25321 -31.7613 -4.01404 10.3661 -14.2015 -4.71276 -105.966 -29.2824 86.6252 -16.4501 51.5529 15.5123 79.4371 -8.60723 0.458724 5.38903 -3.48823 70.1149 114.096 -30.4075 -85.0817 13.1899 53.497 -10.6112 -36.9693 -18.7822 1.0692 16.3029 4.14687 56.1055 176.096 12.3881 7.99859 3.45013 -77.3371 -7.95667 22.8812 70.2843 -25.1314 -0.965281 26.367 -3.60229 -175.912 -21.6515 -3.45046 7.97118 -29.2391 7.00135 -35.9074 80.197 26.4135 0.963541 26.3682 3.55537 
-97.3237 93.3077 308.389 -12.7297 -3.59845 -72.0501 -0.36033 -7.87838 2.35081 -0.679875 -1.82197 4.78423 -1.23096 4.74948 4.7982 -7.76069 -34.5806 -5.52963 12.3656 -12.2185 -6.03084 -105.977 -29.5409 86.5562 -9.38015 47.0007 20.2857 63.1523 -18.2724 -0.355602 -14.2099 2.27281 91.6238 111.064 -27.9326 -86.3441 8.61039 51.6769 -25.6717 -33.9732 -16.4063 0.953766 12.9597 12.151 47.0702 173.553 15.2819 8.65008 -1.24465 -70.534 -10.4306 27.2558 76.5227 -30.5567 -0.965281 26.367 -3.60229 -179.056 -26.3953 -2.01775 7.21361 -26.697 4.05191 -14.4641 72.0688 5.62126 0.963541 26.3682 3.55537 
-103.34 93.7736 310.208 -12.866 -3.77581 -74.6652 -0.239397 -7.93143 3.08854 -0.426279 -1.92536 6.23241 -1.14394 4.63004 6.24935 -7.91851 -36.9772 -5.73969 11.3971 -10.4946 -6.01765 -105.653 -29.5979 86.5894 -3.49799 43.6254 30.3083 37.166 -22.5314 -1.01214 -21.3621 0.787153 86.3788 108.211 -24.8584 -87.5771 2.13379 48.6606 -37.7061 -41.6929 -18.1953 1.07138 10.5759 12.9946 10.8914 172.462 16.5344 10.5971 -4.07531 -59.3219 -11.035 34.1162 81.0325 -38.1192 -0.965281 26.367 -3.60229 178.045 -26.8912 0.724736 6.08659 -31.4236 1.10113 -0.257781 66.7386 -2.25732 0.963541 26.3682 3.55537 
-108.956 94.0004 311.63 -13.2671 -3.76559 -76.4171 -0.0947001 -7.84191 3.05819 -0.145366 -1.7385 6.13896 -0.852486 4.81804 6.15808 -5.9909 -36.6146 -5.33282 11.4348 -10.1301 -5.92148 -106.245 -29.3367 86.5707 -2.78704 41.696 32.1601 14.6822 -13.8053 -0.648521 -17.0005 -2.89733 67.5976 107.607 -23.1104 -88.1055 -4.30062 44.42 -34.9773 -60.8792 -17.731 1.08273 9.9387 12.6421 -36.3661 172.961 14.8501 12.6725 -4.06433 -42.575 -9.60624 18.5921 78.2967 -24.651 -0.965281 26.367 -3.60229 177.225 -24.6307 1.73931 4.66055 -39.2267 0.953884 3.3752 59.1608 -1.93078 0.963541 26.3682 3.55537 
-114.421 92.6481 312.982 -13.7042 -3.42487 -77.4141 0.00100977 -7.49194 2.56914 0.0212109 -1.03416 5.1384 -0.571447 5.53371 5.16188 -1.33198 -35.1193 -4.88219 9.07088 -10.7972 -5.66235 -105.675 -27.8649 87.0299 -12.8043 41.1402 38.3764 12.4207 -12.4023 -0.572788 -25.1614 6.8287 56.0982 107.827 -23.3421 -88.025 -10.0896 42.2631 -18.8073 -80.5297 -6.58932 0.585541 6.78174 12.8774 -63.6086 174.286 15.3876 7.75491 -6.90304 -46.5093 -12.5173 27.1782 73.4451 -22.5105 -0.965281 26.367 -3.60229 177.205 -19.2721 2.35883 2.98924 -51.8502 0.782987 4.4874 56.2144 -1.13667 0.963541 26.3682 3.55537 
-119.536 91.6597 314.432 -15.2231 -5.01896 -79.0411 -0.149433 -6.57133 2.02949 -0.314925 0.800949 4.09651 -0.789048 7.37846 4.1305 -2.08249 -32.6972 -5.85834 9.24765 -12.8277 -6.47277 -105.351 -28.3695 86.9449 -22.7642 42.6335 49.435 17.9201 -15.9155 -0.747388 -26.668 18.5486 54.4821 107.145 -23.7663 -87.9718 -14.6751 44.611 -6.63155 -94.2515 -0.220162 0.25614 -3.95742 7.50615 -63.4552 174.273 10.4638 2.60337 -7.01077 -49.0569 -10.683 39.7766 80.118 -33.7201 -0.965281 26.367 -3.60229 175.214 -13.3732 1.31191 1.40399 -65.2315 0.544983 2.32636 59.8931 -0.401437 0.963541 26.3682 3.55537 
-124.755 90.8203 315.944 -14.3238 -6.15067 -80.4761 -0.364404 -6.41545 1.63351 -0.744031 1.10725 3.35918 -1.13292 7.69031 3.38903 -3.28728 -29.4948 -6.68872 9.59049 -14.5444 -7.23947 -105.512 -28.9654 86.7717 -25.8008 45.0936 55.4226 16.9481 -15.3505 -0.726063 -23.667 21.335 50.305 109.361 -25.2505 -87.3485 -15.9236 47.2864 -2.3819 -102.507 1.16789 0.11375 -20.3927 -7.29245 -50.3693 172.798 7.90658 -0.0411652 -6.31813 -50.6792 -10.0815 64.8771 83.4726 -59.2321 -0.965281 26.367 -3.60229 173.697 -3.41078 0.654043 -3.32846 -76.4797 -1.62226 -2.02841 60.8048 2.68315 0.963541 26.3682 3.55537 
-130.031 91.063 317.278 -13.8617 -5.28645 -81.4441 -0.0778442 -6.47366 1.1804 -0.168245 1.0003 2.38059 -0.443457 7.58904 2.40144 -2.68013 -27.3491 -6.56189 8.48859 -14.586 -7.1092 -106.62 -28.7167 86.6813 -26.1679 48.536 57.6611 15.323 -13.395 -0.634762 -23.3763 20.4457 46.0876 111.42 -26.6329 -86.7027 -12.3006 51.1964 -2.24155 -106.982 2.9115 0.000158103 -23.6258 -20.9905 -14.6247 173.401 3.48288 0.590287 -8.08066 -48.5473 -11.9331 90.1467 83.7518 -84.7641 -0.965281 26.367 -3.60229 175.658 6.16485 0.166485 -13.2607 -81.6993 -8.55793 -7.62763 62.9973 7.33003 0.963541 26.3682 3.55537 
-135.57 92.0477 318.698 -13.7948 -4.71516 -82.3151 0.143226 -6.54182 0.668031 0.276787 0.867267 1.30044 0.127099 7.46005 1.31175 -1.17662 -27.3496 -6.34538 8.54958 -15.1268 -6.89757 -105.988 -28.3894 86.8538 -26.5561 53.771 62.3818 16.2644 -13.4621 -0.642135 -21.5144 16.141 47.8548 113.974 -28.7224 -85.6822 -4.14975 53.9098 -5.68746 -110.422 4.58555 -0.0997472 -11.2647 -22.6551 15.0818 173.051 -3.61421 0.526701 -6.88916 -42.2628 -11.2481 94.1807 83.3934 -89.3438 -0.965281 26.367 -3.60229 177.307 13.8192 -1.11555 -10.9377 -80.9489 -4.178 -12.0671 65.1499 11.5631 0.963541 26.3682 3.55537 
-141.329 93.1215 320.104 -14.0244 -4.55272 -82.2762 0.22128 -6.69326 -0.163346 0.438127 0.562061 -0.381185 0.483825 7.15639 -0.383766 1.24891 -28.1416 -5.9059 7.50162 -14.6782 -6.43723 -106.015 -28.0741 86.9318 -25.5873 57.5557 65.5201 18.8051 -14.7642 -0.706601 -19.4589 11.4542 53.399 115.394 -30.9162 -84.6862 7.19163 55.0181 -9.99096 -110.046 5.18913 -0.11268 -1.30148 -6.77972 28.7049 171.807 -12.3598 0.777795 -4.45756 -33.2535 -10.2394 79.2369 82.5806 -74.7638 -0.965281 26.367 -3.60229 177.803 18.9388 -1.41818 -2.69013 -74.9878 5.01774 -14.746 66.8355 14.4432 0.963541 26.3682 3.55537 
-147.009 93.8753 321.255 -13.755 -4.45241 -80.8871 0.229068 -7.03408 -1.26759 0.451583 -0.123952 -2.59033 0.753293 6.46372 -2.60652 3.57931 -28.4284 -5.1172 6.47689 -13.9474 -5.67463 -106.2 -27.8135 86.9751 -21.1723 59.6888 63.3776 21.9941 -15.0934 -0.726508 -16.7383 7.95723 55.4636 115.641 -32.7917 -83.9537 14.4847 53.7062 -11.2288 -104.032 4.72079 -0.0143126 -1.34503 10.8768 33.6765 172.154 -18.2034 0.837776 -3.43144 -27.9227 -9.0079 48.1359 80.9062 -44.8806 -0.965281 26.367 -3.60229 177.931 21.7702 -0.426137 0.98819 -63.7411 8.83892 -16.0491 68.3716 16.35 0.963541 26.3682 3.55537 
